<svg width="400" height="400" xmlns="http://www.w3.org/2000/svg" xmlns:xlink="http://www.w3.org/1999/xlink">
 <title/>
 <desc/>
 <defs>
  <path id="path-1" d="m200.11314,373c0,0 113.11313,-172.24573 113.11313,-233.70968c0,-61.46395 -50.64247,-111.29032 -113.11313,-111.29032c-62.47066,0 -113.11314,49.82637 -113.11314,111.29032c0,61.46395 113.11314,233.70968 113.11314,233.70968z"/>
  <filter y="-50%" x="-50%" width="200%" id="filter-2" height="200%" filterUnits="objectBoundingBox">
   <feGaussianBlur stdDeviation="2"/>
  </filter>
  <path id="path-3" d="m199.49051,217.74306c44.18278,0 80,-35.24002 80,-78.7108c0,-43.47078 -35.81722,-78.71081 -80,-78.71081c-44.18278,0 -80,35.24003 -80,78.71081c0,43.47078 35.81722,78.7108 80,78.7108z"/>
  <filter y="-50%" x="-50%" width="200%" id="filter-4" height="200%" filterUnits="objectBoundingBox">
   <feGaussianBlur stdDeviation="2"/>
  </filter>
 </defs>
 <g>
  <title>background</title>
  <rect fill="none" id="canvas_background" height="402" width="582" y="-1" x="-1"/>
 </g>
 <g>
  <title>Layer 1</title>
  <use id="svg_1" xlink:href="#path-1" filter="url(#filter-2)" fill="black"/>
  <use id="svg_2" xlink:href="#path-1" fill-rule="evenodd" fill="#ff5656"/>
  <use id="svg_3" xlink:href="#path-3" filter="url(#filter-4)" fill="black"/>
  <use id="svg_4" xlink:href="#path-3" fill-rule="evenodd" fill="#ffffaa"/>
 </g>
</svg>