<?xml version="1.0" ?><svg height="400px" version="1.1" viewBox="0 0 400 400" width="400px" xmlns="http://www.w3.org/2000/svg" xmlns:xlink="http://www.w3.org/1999/xlink"><title/><desc/><defs><path d="M200.113136,373 C200.113136,373 313.226271,200.754271 313.226271,139.290323 C313.226271,77.8263746 262.583796,28 200.113136,28 C137.642476,28 87,77.8263746 87,139.290323 C87,200.754271 200.113136,373 200.113136,373 Z" id="path-1"/><filter filterUnits="objectBoundingBox" height="200%" id="filter-2" width="200%" x="-50%" y="-50%"><feOffset dx="0" dy="4" in="SourceAlpha" result="shadowOffsetOuter1"/><feGaussianBlur in="shadowOffsetOuter1" result="shadowBlurOuter1" stdDeviation="2"/><feColorMatrix in="shadowBlurOuter1" type="matrix" values="0 0 0 0 0   0 0 0 0 0   0 0 0 0 0  0 0 0 0.5 0"/></filter><path d="M199.490509,217.743062 C243.673289,217.743062 279.490509,182.503035 279.490509,139.032258 C279.490509,95.5614816 243.673289,60.3214545 199.490509,60.3214545 C155.307729,60.3214545 119.490509,95.5614816 119.490509,139.032258 C119.490509,182.503035 155.307729,217.743062 199.490509,217.743062 Z" id="path-3"/><filter filterUnits="objectBoundingBox" height="200%" id="filter-4" width="200%" x="-50%" y="-50%"><feOffset dx="0" dy="4" in="SourceAlpha" result="shadowOffsetOuter1"/><feGaussianBlur in="shadowOffsetOuter1" result="shadowBlurOuter1" stdDeviation="2"/><feColorMatrix in="shadowBlurOuter1" type="matrix" values="0 0 0 0 0   0 0 0 0 0   0 0 0 0 0  0 0 0 0.5 0"/></filter></defs><g fill="none" fill-rule="evenodd" id="Page-1" stroke="none" stroke-width="1"><g id="pin"><circle cx="200" cy="200" fill="#AAD8B0" id="Background" r="200"/><g id="Oval-87"><use fill="black" fill-opacity="1" filter="url(#filter-2)" xlink:href="#path-1"/><use fill="#D98383" fill-rule="evenodd" xlink:href="#path-1"/></g><g id="Oval-88"><use fill="black" fill-opacity="1" filter="url(#filter-4)" xlink:href="#path-3"/><use fill="#FBF0B8" fill-rule="evenodd" xlink:href="#path-3"/></g></g></g></svg>