<svg width="91.00000000000001" height="91.00000000000001" xmlns="http://www.w3.org/2000/svg">

 <g>
  <title>background</title>
  <rect fill="none" id="canvas_background" height="402" width="582" y="-1" x="-1"/>
 </g>
 <g>
  <title>Layer 1</title>
  <polygon id="svg_3" points="87.912,37.63 56.344,37.63 45.512,4.648 34.682,37.63 3.109,37.63 28.693,55.84 18.424,87.096     45.512,67.813 72.597,87.096 62.332,55.84   " fill="#ffff00"/>
  <path id="svg_4" fill="#454b53" d="m72.597,89.608c-0.511,0 -1.021,-0.155 -1.457,-0.466l-25.628,-18.246l-25.631,18.247c-0.885,0.629 -2.074,0.62 -2.947,-0.023c-0.873,-0.645 -1.235,-1.776 -0.896,-2.808l9.691,-29.498l-24.077,-17.137c-0.891,-0.634 -1.27,-1.771 -0.936,-2.812c0.332,-1.041 1.3,-1.748 2.393,-1.748l29.753,0l10.262,-31.253c0.339,-1.031 1.302,-1.729 2.388,-1.729c1.085,0 2.048,0.697 2.387,1.729l10.265,31.253l29.749,0c1.094,0 2.061,0.707 2.394,1.748s-0.046,2.178 -0.937,2.812l-24.073,17.136l9.688,29.498c0.338,1.031 -0.023,2.164 -0.898,2.808c-0.443,0.326 -0.967,0.489 -1.49,0.489zm-27.085,-24.308c0.51,0 1.021,0.155 1.457,0.466l20.854,14.848l-7.878,-23.989c-0.344,-1.046 0.033,-2.193 0.93,-2.831l19.176,-13.65l-23.707,0c-1.086,0 -2.049,-0.697 -2.387,-1.729l-8.445,-25.713l-8.443,25.713c-0.338,1.031 -1.301,1.729 -2.387,1.729l-23.709,0l19.178,13.65c0.896,0.638 1.273,1.785 0.93,2.831l-7.881,23.988l20.855,-14.847c0.435,-0.311 0.946,-0.466 1.457,-0.466z"/>
 </g>
</svg>